<?xml version="1.0" encoding="UTF-8" standalone="no"?>
<!-- Created with Inkscape (http://www.inkscape.org/) -->

<svg
   width="70mm"
   height="8mm"
   viewBox="0 0 70 8"
   version="1.1"
   id="svg8257"
   inkscape:version="1.1.2 (b8e25be833, 2022-02-05)"
   sodipodi:docname="connector.svg"
   xmlns:inkscape="http://www.inkscape.org/namespaces/inkscape"
   xmlns:sodipodi="http://sodipodi.sourceforge.net/DTD/sodipodi-0.dtd"
   xmlns="http://www.w3.org/2000/svg"
   xmlns:svg="http://www.w3.org/2000/svg">
  <sodipodi:namedview
     id="namedview8259"
     pagecolor="#ffffff"
     bordercolor="#666666"
     borderopacity="1.0"
     inkscape:pageshadow="2"
     inkscape:pageopacity="0.0"
     inkscape:pagecheckerboard="0"
     inkscape:document-units="mm"
     showgrid="false"
     inkscape:zoom="8.7988368"
     inkscape:cx="66.542887"
     inkscape:cy="25.401085"
     inkscape:window-width="2558"
     inkscape:window-height="1360"
     inkscape:window-x="1273"
     inkscape:window-y="0"
     inkscape:window-maximized="0"
     inkscape:current-layer="layer1" />
  <defs
     id="defs8254" />
  <g
     inkscape:label="Layer 1"
     inkscape:groupmode="layer"
     id="layer1">
    <path
       style="fill:#040404;stroke-width:0.0846667"
       d="m 0.0489951,3.2760176 c 0.23454,-1.3259 1.3032,-2.55830004 2.64842,-3.05421004 0.97128,-0.35806 1.23363,-0.34046 7.25233,0.48622 7.5406099,1.03573004 7.7989299,1.06082004 10.3293299,1.00310004 1.63129,-0.0372 3.13222,-0.15183 7.02734,-0.53663 4.90262,-0.48434004 4.98099,-0.48932004 7.70467,-0.48932004 2.72367,0 2.80204,0.005 7.70466,0.48932004 3.89512,0.3848 5.39605,0.49942 7.02734,0.53663 2.53031,0.0577 2.78837,0.0327 10.32933,-1.00303004 6.02197,-0.82707 6.24124,-0.8417 7.25453,-0.48398 1.12576,0.39743 2.17168,1.46842004 2.52851,2.58912004 0.20827,0.65413 0.20827,1.76394 0,2.41808 -0.35683,1.12069 -1.40275,2.19169 -2.52851,2.58911 -1.01329,0.35772 -1.23256,0.3431 -7.25453,-0.48398 -7.54096,-1.03568 -7.79902,-1.06075 -10.32933,-1.00303 -1.63129,0.0372 -3.13222,0.15183 -7.02734,0.53664 -4.90262,0.48433 -4.98099,0.48931 -7.70466,0.48931 -2.72368,0 -2.80205,-0.005 -7.70467,-0.48931 -3.89512,-0.38481 -5.39605,-0.49943 -7.02734,-0.53664 -2.53031,-0.0577 -2.78836,-0.0326 -10.3293299,1.00303 -6.02197,0.82708 -6.24124,0.8417 -7.25453,0.48398 -1.11065,-0.39209 -2.18142,-1.47842 -2.5103,-2.54678 -0.17835,-0.57936 -0.23626,-1.43039 -0.13592,-1.99763 z m 2.4613,1.26279 c 0.13329,0.40005 0.61582,0.88092 0.99923,0.9958 0.48617,0.14566 0.77578,0.11786 1.25388,-0.12039 0.35485,-0.17682 0.47479,-0.29677 0.65162,-0.65162 0.34637,-0.69508 0.25974,-1.29781 -0.26595,-1.85049 -0.50348,-0.52931 -1.16819,-0.62967 -1.86632,-0.28178 -0.6937,0.34569 -1.02249,1.15801 -0.77246,1.90848 z m 61.9759999,0 c 0.13329,0.40005 0.61582,0.88092 0.99923,0.9958 0.48617,0.14566 0.77579,0.11786 1.25388,-0.12039 0.35485,-0.17682 0.47479,-0.29677 0.65162,-0.65162 0.34637,-0.69508 0.25974,-1.29781 -0.26595,-1.85049 -0.50347,-0.52931 -1.16819,-0.62967 -1.86632,-0.28178 -0.6937,0.34569 -1.02249,1.15801 -0.77246,1.90848 z"
       id="path8145" />
  </g>
</svg>
