<?xml version="1.0" encoding="UTF-8" standalone="no"?>
<!-- Created with Inkscape (http://www.inkscape.org/) -->

<svg
   width="42mm"
   height="18mm"
   viewBox="0 0 42 18"
   version="1.1"
   id="svg9493"
   inkscape:version="1.1.2 (b8e25be833, 2022-02-05)"
   sodipodi:docname="servo-arm.svg"
   xmlns:inkscape="http://www.inkscape.org/namespaces/inkscape"
   xmlns:sodipodi="http://sodipodi.sourceforge.net/DTD/sodipodi-0.dtd"
   xmlns="http://www.w3.org/2000/svg"
   xmlns:svg="http://www.w3.org/2000/svg">
  <sodipodi:namedview
     id="namedview9495"
     pagecolor="#ffffff"
     bordercolor="#666666"
     borderopacity="1.0"
     inkscape:pageshadow="2"
     inkscape:pageopacity="0.0"
     inkscape:pagecheckerboard="0"
     inkscape:document-units="mm"
     showgrid="false"
     inkscape:zoom="5.6568542"
     inkscape:cx="76.632698"
     inkscape:cy="39.509591"
     inkscape:window-width="2558"
     inkscape:window-height="1360"
     inkscape:window-x="1273"
     inkscape:window-y="0"
     inkscape:window-maximized="0"
     inkscape:current-layer="layer1" />
  <defs
     id="defs9490" />
  <g
     inkscape:label="Layer 1"
     inkscape:groupmode="layer"
     id="layer1">
    <circle
       style="fill:#ff0000;stroke-width:0.266205"
       id="path9589-8"
       cx="39"
       cy="15"
       r="2" />
    <circle
       style="fill:#ff0000;stroke-width:0.266205"
       id="path9589"
       cx="3"
       cy="15"
       r="2" />
    <path
       style="fill:#030303;stroke-width:0.0846667"
       d="m 2.0033596,17.893368 c -0.63474,-0.23554 -0.97147,-0.46294 -1.32576004,-0.8953 -0.80595,-0.98354 -0.95584,-2.09318 -0.60142,-4.45201 0.21143,-1.40715 0.82918,-2.9529298 1.71813004,-4.2991995 0.84868,-1.2853 2.77326,-2.84395 4.29646,-3.47953 1.16743,-0.48714 13.7652104,-4.66098004 14.3691004,-4.76070004 0.42431,-0.0701 0.72482,-0.0701 1.14913,0 0.60389,0.0997 13.20167,4.27356004 14.3691,4.76070004 1.5232,0.63558 3.44778,2.19423 4.29646,3.47953 1.32728,2.0100995 1.88421,3.9560195 1.82582,6.3793595 -0.0274,1.13807 -0.0396,1.20793 -0.30463,1.75206 -0.36864,0.75674 -0.92549,1.24407 -1.71872,1.50412 -1.54427,0.50627 -3.09356,-0.18884 -3.84523,-1.72522 -0.20226,-0.41339 -0.23117,-0.59514 -0.29296,-1.84147 -0.0735,-1.48175 -0.11598,-1.66043 -0.55095,-2.31592 -0.64928,-0.97845 -1.69996,-1.66075 -2.79646,-1.81598 -0.80203,-0.11354 -22.31197,-0.11354 -23.1140004,0 -1.11012,0.15716 -2.14659,0.8368 -2.81742,1.84745 -0.39354,0.5929 -0.52691,1.13258 -0.52691,2.1322 0,1.48692 -0.21883,2.14469 -0.98658,2.96547 -0.53913,0.57637 -1.18477,0.8644 -2.01909,0.90073 -0.51905,0.0226 -0.78173,-0.009 -1.12407,-0.13629 z m 1.61362,-1.5629 c 0.74328,-0.31671 1.02436,-1.28613 0.60695,-2.09331 -0.25837,-0.49963 -1.2027,-0.74009 -1.84005,-0.46852 -0.7431,0.31664 -1.02435,1.28613 -0.60716,2.0929 0.2591,0.50103 1.2014,0.74115 1.84026,0.46893 z m 36.0680104,0 c 0.74328,-0.31671 1.02435,-1.28613 0.60695,-2.09331 -0.25838,-0.49963 -1.20271,-0.74009 -1.84006,-0.46852 -0.7431,0.31664 -1.02435,1.28613 -0.60716,2.0929 0.2591,0.50103 1.2014,0.74115 1.84027,0.46893 z M 21.69493,5.9640485 c 0.54831,-0.35454 0.62759,-1.26243 0.1518,-1.73823 -0.83629,-0.83628 -2.21322,-0.0395 -1.89891,1.09883 0.10758,0.38962 0.31876,0.61299 0.70561,0.74634 0.36945,0.12734 0.73764,0.0895 1.0415,-0.10694 z"
       id="path9381" />
  </g>
</svg>
