<?xml version="1.0" encoding="UTF-8" standalone="no"?>
<!-- Created with Inkscape (http://www.inkscape.org/) -->

<svg
   width="100mm"
   height="50mm"
   viewBox="0 0 100 50"
   version="1.1"
   id="svg2813"
   inkscape:version="1.1.2 (b8e25be833, 2022-02-05)"
   sodipodi:docname="wheel.svg"
   xmlns:inkscape="http://www.inkscape.org/namespaces/inkscape"
   xmlns:sodipodi="http://sodipodi.sourceforge.net/DTD/sodipodi-0.dtd"
   xmlns="http://www.w3.org/2000/svg"
   xmlns:svg="http://www.w3.org/2000/svg">
  <sodipodi:namedview
     id="namedview2815"
     pagecolor="#ffffff"
     bordercolor="#666666"
     borderopacity="1.0"
     inkscape:pageshadow="2"
     inkscape:pageopacity="0.0"
     inkscape:pagecheckerboard="0"
     inkscape:document-units="mm"
     showgrid="false"
     inkscape:zoom="2.1997092"
     inkscape:cx="294.35709"
     inkscape:cy="178.43268"
     inkscape:window-width="2558"
     inkscape:window-height="1360"
     inkscape:window-x="1273"
     inkscape:window-y="0"
     inkscape:window-maximized="0"
     inkscape:current-layer="layer1" />
  <defs
     id="defs2810" />
  <g
     inkscape:label="Layer 1"
     inkscape:groupmode="layer"
     id="layer1">
    <path
       style="fill:#4d4d4d;stroke-width:0.0846667"
       d="m 95.42367,49.407362 c 0.22933,-0.232833 0.43602,-0.423333 0.4593,-0.423333 0.0233,0 -0.1453,0.1905 -0.37463,0.423333 -0.22933,0.232833 -0.43602,0.423333 -0.4593,0.423333 -0.0233,0 0.1453,-0.1905 0.37463,-0.423333 z m -0.003,-6.371167 -0.42015,-0.4445 0.4445,0.42015 c 0.24448,0.231081 0.4445,0.431106 0.4445,0.4445 0,0.06318 -0.0784,-0.0071 -0.46885,-0.42015 z m -87.97645,-0.889 c 0.0254,-0.174625 0.10728,-0.8128 0.18192,-1.418166 0.0746,-0.605367 0.17835,-1.245827 0.23046,-1.423245 0.11428,-0.389097 0.41873,-0.622898 0.98684,-0.75785 l 0.4214,-0.100099 0.29907,-0.933736 c 0.1645,-0.513556 0.36037,-1.181387 0.43528,-1.484071 1.01596,-4.105153 2.95985,-8.638315 5.24626,-12.234333 1.47062,-2.312948 2.54212,-3.760006 4.13678,-5.586701 4.19492,-4.80533 8.90659,-8.495617 14.65833,-11.480757 2.69434,-1.398358 7.54323,-2.621993 12.10733,-3.055334 0.69665,-0.06614 2.28488,-0.112542 3.85233,-0.112542 1.56745,0 3.15569,0.0464 3.85234,0.112542 4.32283,0.410433 9.12474,1.586594 11.65551,2.854857 3.50152,1.754748 7.14785,4.177813 10.05926,6.684601 5.39,4.640912 9.33691,9.91126 12.11056,16.171334 0.96849,2.185857 1.69206,4.300459 2.31767,6.773333 0.23602,0.932966 0.48617,1.742151 0.64489,2.086173 0.0748,0.16217 0.18769,0.237397 0.41128,0.274124 0.41747,0.06857 0.82306,0.331263 0.97997,0.634697 0.10775,0.208355 0.47119,2.645501 0.47119,3.159654 0,0.147378 -1.56875,0.153019 -42.55244,0.153019 H 7.398 Z m 30.06947,-3.820218 c 0.43709,-0.198552 1.11613,-0.952843 1.21743,-1.352339 0.0432,-0.170285 0.12327,-0.65251 0.17796,-1.07161 0.63618,-4.874599 1.73692,-10.082013 3.1743,-15.017165 0.35517,-1.219461 0.38101,-1.137421 -0.54982,-1.745606 -1.20205,-0.785388 -2.69874,-1.37041 -4.02167,-1.571987 -0.7589,-0.115633 -1.53128,-0.04412 -2.81991,0.261085 -1.52686,0.361633 -3.62888,1.153659 -5.15609,1.942777 -0.64241,0.33194 -0.82967,0.597768 -1.93974,2.753563 -1.88755,3.665724 -3.26391,8.165033 -4.09219,13.377333 -0.0962,0.605367 -0.17443,1.214967 -0.17385,1.354667 0.002,0.386813 0.16158,0.881135 0.34427,1.063831 0.15927,0.159261 0.35,0.163784 6.83134,0.161977 6.27375,-0.0018 6.68761,-0.01099 7.00797,-0.156526 z m 38.73658,-0.01433 c 0.40435,-0.404345 0.42711,-0.928537 0.12141,-2.79624 -0.41226,-2.51877 -0.73147,-3.965513 -1.35144,-6.124954 -0.92521,-3.222613 -2.27011,-6.400525 -3.67516,-8.684136 -0.36626,-0.59528 -0.43615,-0.660189 -1.06821,-0.992032 -2.12764,-1.117051 -4.61536,-1.918821 -6.78604,-2.187087 -0.97128,-0.120037 -2.48875,0.269072 -4.16826,1.068828 -0.57712,0.274818 -1.09807,0.499668 -1.15767,0.499668 -0.0596,0 -0.22868,0.101256 -0.37577,0.225014 -0.33338,0.280524 -0.3254,0.359641 0.2036,2.018653 0.21848,0.685137 0.33415,1.109671 0.86513,3.175 0.90452,3.518211 1.68592,7.554107 2.14398,11.073476 0.0925,0.710784 0.23482,1.433224 0.31656,1.607058 0.19744,0.419835 0.86859,1.067548 1.22384,1.181091 0.19236,0.06148 2.43819,0.0939 6.91015,0.09973 6.56129,0.0086 6.62684,0.007 6.79788,-0.16407 z"
       id="path8992" />
    <path
       style="fill:#030303;stroke-width:0.0846667"
       d="m 84.98384,46.655695 c 0.002,-0.1397 0.0207,-0.186597 0.0422,-0.104224 0.0215,0.08238 0.0201,0.19668 -0.003,0.254 -0.0232,0.05733 -0.0407,-0.01008 -0.039,-0.149776 z"
       id="path8990" />
    <path
       style="fill:#000000;stroke-width:0.5;stroke:#000000;stroke-opacity:1;stroke-miterlimit:4;stroke-dasharray:none"
       d="M 4.51057,49.426404 3.94134,48.852778 v -2.62481 -2.624811 l 0.57362,-0.569231 0.57363,-0.569231 44.87121,10e-4 44.8712,0.001 0.61384,0.602602 0.61383,0.602598 v 2.552336 2.552344 L 95.44285,49.388283 94.82703,50 H 49.95341 5.0798 L 4.51057,49.426375 Z m 80.51544,-2.874933 c -0.0215,-0.08237 -0.0404,-0.03548 -0.0422,0.104224 -0.002,0.1397 0.0158,0.207103 0.039,0.149776 0.0232,-0.05732 0.0246,-0.17162 0.003,-0.254 z"
       id="path8988" />
  </g>
</svg>
