<?xml version="1.0" encoding="UTF-8" standalone="no"?>
<!-- Created with Inkscape (http://www.inkscape.org/) -->

<svg
   width="275mm"
   height="275mm"
   viewBox="0 0 275 275"
   version="1.1"
   id="svg1011"
   inkscape:version="1.1.2 (b8e25be833, 2022-02-05)"
   sodipodi:docname="chassis.svg"
   xmlns:inkscape="http://www.inkscape.org/namespaces/inkscape"
   xmlns:sodipodi="http://sodipodi.sourceforge.net/DTD/sodipodi-0.dtd"
   xmlns="http://www.w3.org/2000/svg"
   xmlns:svg="http://www.w3.org/2000/svg">
  <sodipodi:namedview
     id="namedview1013"
     pagecolor="#ffffff"
     bordercolor="#666666"
     borderopacity="1.0"
     inkscape:pageshadow="2"
     inkscape:pageopacity="0.0"
     inkscape:pagecheckerboard="0"
     inkscape:document-units="mm"
     showgrid="false"
     inkscape:zoom="4.3994184"
     inkscape:cx="564.73374"
     inkscape:cy="706.57067"
     inkscape:window-width="2558"
     inkscape:window-height="1360"
     inkscape:window-x="1273"
     inkscape:window-y="0"
     inkscape:window-maximized="0"
     inkscape:current-layer="layer1" />
  <defs
     id="defs1008" />
  <g
     inkscape:label="Layer 1"
     inkscape:groupmode="layer"
     id="layer1">
    <rect
       style="fill:#00ffff;stroke-width:0.251877"
       id="rect7782"
       width="7"
       height="27"
       x="74.5"
       y="104.13916"
       ry="3.5999997" />
    <rect
       style="fill:#00ffff;stroke-width:0.251877"
       id="rect7782-4"
       width="7"
       height="27"
       x="74.5"
       y="143.5"
       ry="3.5999997" />
    <rect
       style="fill:#00ffff;stroke-width:0.251877"
       id="rect7782-5"
       width="7"
       height="27"
       x="193.5"
       y="104.5"
       ry="3.5999997" />
    <rect
       style="fill:#00ffff;stroke-width:0.251877"
       id="rect7782-4-1"
       width="7"
       height="27"
       x="193.5"
       y="143.86084"
       ry="3.5999997" />
    <rect
       style="fill:#ff0000;stroke-width:0.153386"
       id="rect2178"
       width="3.2"
       height="3.2"
       x="90.5"
       y="90.5" />
    <rect
       style="fill:#ff0000;stroke-width:0.153386"
       id="rect2178-4"
       width="3.2"
       height="3.2"
       x="181.3"
       y="90.5" />
    <rect
       style="fill:#ff0000;stroke-width:0.153386"
       id="rect2178-3"
       width="3.2"
       height="3.2"
       x="90.5"
       y="181.3" />
    <rect
       style="fill:#ff0000;stroke-width:0.153386"
       id="rect2178-4-7"
       width="3.2"
       height="3.2"
       x="181.3"
       y="181.3" />
    <rect
       style="fill:#ff0000;stroke-width:0.219096"
       id="rect3868"
       width="10"
       height="10"
       x="43.500004"
       y="221.5" />
    <rect
       style="fill:#ff0000;stroke-width:0.219096"
       id="rect3868-4"
       width="10"
       height="10"
       x="221.5"
       y="221.5" />
    <rect
       style="fill:#ff0000;stroke-width:0.219096"
       id="rect3868-8"
       width="10"
       height="10"
       x="43.500004"
       y="43.5" />
    <rect
       style="fill:#ff0000;stroke-width:0.219096"
       id="rect3868-4-3"
       width="10"
       height="10"
       x="221.5"
       y="43.5" />
    <rect
       style="fill:#000080;stroke-width:0.260119"
       id="rect6076"
       width="60"
       height="95"
       x="107.5"
       y="92.5" />
    <path
       style="fill:#999999;stroke-width:0.0846667"
       d="m 201.52947,145.26738 c -0.018,0 -0.19643,-0.27623 -0.39657,-0.61385 -0.80536,-1.35858 -2.01914,-2.18283 -3.58209,-2.43251 -1.81029,-0.2892 -3.93472,0.81435 -4.80507,2.49601 -0.41808,0.80781 -0.5617,1.29832 -0.65693,2.24368 -0.0451,0.44821 -0.16679,1.02697 -0.27472,1.30718 -0.24837,0.64477 -1.01575,1.48163 -1.63764,1.7859 -0.91582,0.44806 -1.10089,0.45664 -9.9503,0.46136 l -8.17033,0.004 -0.33694,0.19084 c -0.18893,0.107 -0.42078,0.33885 -0.52778,0.52778 l -0.19083,0.33694 -0.004,18.41499 c -0.005,19.79723 0.008,19.2173 -0.43137,20.13109 -0.26537,0.5522 -0.99861,1.29977 -1.54698,1.57723 -0.48931,0.24757 -1.51815,0.46658 -2.21447,0.47139 -1.61861,0.0112 -3.37523,1.19534 -4.15982,2.80413 -0.90118,1.84786 -0.54718,3.85975 0.94587,5.37562 0.66272,0.67285 1.62507,1.21818 2.45309,1.39007 0.42342,0.0879 0.48784,0.13095 0.63874,0.42674 0.16292,0.31934 0.16783,0.51497 0.16783,6.67094 v 6.34195 l -0.18354,0.23335 c -0.39413,0.50104 1.74122,0.46685 -29.15348,0.46685 -30.8947,0 -28.75935,0.0342 -29.15345,-0.46683 l -0.18387,-0.23302 v -6.33632 c 0,-6.31599 8.5e-4,-6.33752 0.18249,-6.71194 0.16365,-0.33684 0.21982,-0.38122 0.54403,-0.42984 0.19884,-0.0298 0.71248,-0.22503 1.14142,-0.43379 1.05522,-0.51359 1.77687,-1.22651 2.26399,-2.23661 0.41873,-0.86831 0.5206,-1.28246 0.5206,-2.11667 0,-0.8342 -0.10187,-1.24835 -0.5206,-2.11666 -0.71521,-1.48305 -2.18736,-2.52455 -3.8356,-2.71355 -2.20009,-0.25229 -2.51197,-0.35677 -3.30558,-1.10732 -0.55117,-0.52127 -0.93406,-1.22891 -1.04932,-1.93931 -0.06,-0.36988 -0.0892,-6.50769 -0.0899,-18.92016 -8.5e-4,-13.07365 -0.0279,-18.46919 -0.094,-18.70736 -0.11882,-0.42799 -0.54044,-0.84961 -0.96843,-0.96843 -0.23212,-0.0644 -2.82564,-0.0933 -8.4627,-0.094 -5.15094,-8.5e-4 -8.32957,-0.033 -8.67833,-0.0882 -0.30268,-0.0479 -0.7445,-0.1809 -0.9818,-0.29554 -0.4953,-0.23929 -1.2837,-1.02534 -1.54797,-1.54336 -0.22712,-0.44519 -0.43068,-1.29761 -0.43231,-1.81031 -8.5e-4,-0.21628 -0.0808,-0.65442 -0.17807,-0.97366 -0.81213,-2.66578 -3.48361,-4.15935 -6.04182,-3.37782 -1.23405,0.37699 -2.0151,0.95763 -2.67683,1.98995 -0.20654,0.32222 -0.40411,0.58809 -0.43903,0.59081 -0.0349,0.003 -0.0635,-3.30973 -0.0635,-7.36103 0,-4.0513 0.0286,-7.36376 0.0635,-7.36103 0.0349,0.003 0.23249,0.2686 0.43903,0.59082 0.45909,0.7162 0.82381,1.07834 1.48713,1.47665 2.78681,1.67341 6.26931,0.29394 7.23152,-2.86452 0.0973,-0.31923 0.17738,-0.75738 0.17807,-0.97367 0.002,-0.51268 0.20519,-1.3651 0.43231,-1.8103 0.26427,-0.51802 1.05267,-1.30406 1.54797,-1.54336 0.2373,-0.11465 0.67912,-0.24765 0.9818,-0.29554 0.34876,-0.0552 3.52739,-0.0875 8.67833,-0.0882 5.63706,-8.6e-4 8.23058,-0.0296 8.4627,-0.094 0.42799,-0.11882 0.84961,-0.54044 0.96843,-0.96843 0.0661,-0.23817 0.0932,-5.63372 0.094,-18.70737 8.5e-4,-12.412462 0.0299,-18.550272 0.0899,-18.920152 0.11526,-0.7104 0.49815,-1.41803 1.04932,-1.93931 0.79361,-0.75055 1.10549,-0.85503 3.30558,-1.10732 1.64824,-0.189 3.12039,-1.2305 3.8356,-2.71355 0.41873,-0.86831 0.5206,-1.28246 0.5206,-2.11667 0,-0.8342 -0.10187,-1.24836 -0.5206,-2.11666 -0.61253,-1.27015 -1.78897,-2.22286 -3.24293,-2.62621 -0.39913,-0.11073 -0.54883,-0.20093 -0.6985,-0.42088 l -0.1905,-0.27996 v -6.37332 -6.37331 l 0.21283,-0.25294 c 0.47566,-0.56528 -1.93617,-0.52205 29.12417,-0.52205 31.06034,0 28.64851,-0.0432 29.12417,0.52205 l 0.21283,0.25294 v 6.37331 6.37332 l -0.1905,0.27996 c -0.14967,0.21995 -0.29937,0.31015 -0.6985,0.42088 -1.45396,0.40335 -2.6304,1.35606 -3.24293,2.62621 -0.41873,0.8683 -0.5206,1.28246 -0.5206,2.11666 0,0.83421 0.10187,1.24836 0.5206,2.11667 0.71521,1.48305 2.18736,2.52455 3.8356,2.71355 2.20008,0.25229 2.51197,0.35677 3.30558,1.10732 0.55117,0.52128 0.93406,1.22891 1.04931,1.93931 0.06,0.36988 0.0892,6.50769 0.0899,18.920152 8.4e-4,13.07365 0.0279,18.4692 0.094,18.70737 0.11882,0.42799 0.54044,0.84961 0.96843,0.96843 0.23212,0.0644 2.82564,0.0933 8.4627,0.094 5.15094,8.5e-4 8.32957,0.033 8.67833,0.0882 0.30268,0.0479 0.7445,0.1809 0.9818,0.29554 0.49529,0.2393 1.28369,1.02534 1.54796,1.54336 0.22713,0.44519 0.43069,1.29761 0.43232,1.8103 8.5e-4,0.21629 0.0808,0.65444 0.17807,0.97367 0.81212,2.66579 3.48361,4.15935 6.04181,3.37783 1.23406,-0.377 2.01511,-0.95763 2.67683,-1.98995 0.20655,-0.32222 0.40412,-0.58809 0.43904,-0.59082 0.0349,-0.003 0.0635,3.40498 0.0635,7.5727 0,4.16772 -0.0147,7.57767 -0.0327,7.57767 z m -36.58554,-39.83567 c -0.22642,-1.52275 -0.59156,-2.81781 -1.08812,-3.85932 -1.26737,-2.658225 -3.36602,-4.827245 -5.85466,-6.050982 -1.32731,-0.65268 -2.32538,-0.98269 -3.75328,-1.24099 l -1.07272,-0.19404 h -15.66333 -15.66333 l -1.07272,0.19404 c -1.36967,0.24777 -2.38439,0.57785 -3.71047,1.20698 -1.18307,0.56129 -1.94229,1.106037 -3.1214,2.239637 -2.04475,1.96585 -3.345,4.420195 -3.7902,7.154345 -0.15311,0.9403 -0.15855,2.16607 -0.15855,35.77166 v 34.798 l 0.20236,0.635 c 0.1113,0.34925 0.31132,0.8784 0.4445,1.17588 l 0.24214,0.54088 v 3.06169 c 0,2.26842 0.0263,3.08801 0.1016,3.16329 0.1557,0.15568 9.15444,0.14564 9.28392,-0.0104 0.0571,-0.0689 0.10188,-0.66359 0.1162,-1.54517 l 0.0233,-1.43321 h 14.26634 14.26633 v 0.80434 0.80433 l -0.254,0.0287 c -0.1397,0.0158 -0.30163,0.0681 -0.35983,0.1162 -0.13466,0.11138 -0.13728,0.5095 -0.004,0.64254 0.21594,0.21593 0.87684,0.0752 1.23873,-0.26387 0.19636,-0.18396 0.1979,-0.18403 0.31461,-0.0155 0.0645,0.0931 0.15844,0.21723 0.20874,0.27577 0.0721,0.0839 1.28701,0.10182 5.73792,0.0847 l 5.64647,-0.0218 0.11159,-0.23284 c 0.12542,-0.26172 0.28234,-0.29701 0.44564,-0.10025 0.28799,0.347 1.0555,0.5013 1.26112,0.25354 0.17466,-0.21044 0.0727,-0.58406 -0.19407,-0.71136 -0.39184,-0.18697 -0.47901,-0.53532 -0.47901,-1.91422 v -1.2289 l 0.39075,-0.40365 c 1.07354,-1.10898 1.74029,-2.38242 1.96966,-3.76187 0.0428,-0.25704 0.0792,-15.25035 0.0845,-34.78412 0.008,-29.98047 -0.007,-34.43966 -0.11649,-35.179 z m -2.31921,61.13684 c -0.26221,0.43 -0.5783,0.62749 -1.00428,0.62749 -0.32689,0 -0.42438,-0.0448 -0.70276,-0.32321 -0.52393,-0.52394 -0.54424,-0.95566 -0.0704,-1.49538 0.5573,-0.63472 1.40144,-0.49011 1.81854,0.31155 0.16115,0.30973 0.14909,0.5676 -0.0411,0.87955 z m -0.65781,15.64118 c -0.0313,0.0313 -0.13635,0.0571 -0.23337,0.0573 -0.097,0 -0.30114,0.0764 -0.4536,0.16934 -0.21029,0.12821 -0.42662,0.16901 -0.89606,0.16901 -0.34036,0 -0.64312,-0.0243 -0.67278,-0.0539 -0.0297,-0.0297 0.0221,-0.1608 0.11514,-0.29141 0.13899,-0.19521 0.24694,-0.83525 0.60681,-3.59794 l 0.43773,-3.36049 -0.23304,-0.20044 c -0.2912,-0.2505 -0.40919,-0.25116 -0.69662,-0.004 -0.21698,0.18664 -0.24041,0.28564 -0.4659,1.9685 -0.13059,0.97459 -0.29645,2.13393 -0.36857,2.57631 -0.0721,0.44238 -0.13131,0.83291 -0.13149,0.86783 0,0.0349 -0.0758,0.0635 -0.16806,0.0635 -0.21269,0 -0.19212,0.0997 -0.58385,-2.8314 -0.31658,-2.3688 -0.33505,-2.45692 -0.55468,-2.64584 -0.27968,-0.24058 -0.38745,-0.24378 -0.672,-0.0199 -0.17206,0.13534 -0.22308,0.25011 -0.22308,0.50182 0,0.17948 0.19064,1.70456 0.42366,3.38908 0.33867,2.44837 0.45706,3.10964 0.59016,3.29657 0.0916,0.1286 0.14223,0.2581 0.11256,0.28777 -0.0705,0.0705 -4.12963,0.0705 -4.20011,0 -0.0297,-0.0297 0.021,-0.15917 0.11257,-0.28777 0.1331,-0.18693 0.25148,-0.8482 0.59016,-3.29657 0.23302,-1.68452 0.42366,-3.2096 0.42366,-3.38908 0,-0.25171 -0.051,-0.36648 -0.22309,-0.50182 -0.28454,-0.22384 -0.39231,-0.22064 -0.67199,0.0199 -0.21919,0.18854 -0.2386,0.2799 -0.55124,2.5956 -0.39363,2.91552 -0.38671,2.88164 -0.58856,2.88164 -0.11381,0 -0.17103,-0.0779 -0.20204,-0.27516 -0.18903,-1.20245 -0.2674,-1.74695 -0.47053,-3.26936 -0.21963,-1.64609 -0.24319,-1.74497 -0.46007,-1.93152 -0.28754,-0.24733 -0.4055,-0.24668 -0.69673,0.004 l -0.23304,0.20045 0.43773,3.36049 c 0.35987,2.76268 0.46782,3.40272 0.60681,3.59793 0.093,0.1306 0.14481,0.26173 0.11514,0.29141 -0.0297,0.0297 -0.33699,0.0539 -0.68293,0.0539 -0.48367,0 -0.68151,-0.0374 -0.85639,-0.16194 -0.12506,-0.0891 -0.3405,-0.17478 -0.47873,-0.19049 l -0.25134,-0.0286 v -6.30767 -6.30767 h 6.18067 6.18067 l 0.0217,6.27186 c 0.0119,3.44951 -0.004,6.2975 -0.0353,6.32884 z m -2.5805,-81.5797 c -0.45086,0.70411 -1.40428,0.69837 -1.84275,-0.0111 -0.44278,-0.716435 0.083,-1.664225 0.92316,-1.664225 0.36943,0 0.71573,0.20147 0.92316,0.53711 0.22538,0.36467 0.22406,0.782725 -0.004,1.138215 z m -6.95026,63.81724 c -0.0599,0.023 -1.36596,0.0317 -2.90231,0.0195 l -2.79335,-0.0223 v -1.143 -1.143 h 2.87866 2.87867 l 0.0236,1.12354 c 0.018,0.85529 -0.002,1.13353 -0.0853,1.16535 z m 0,-5.16472 c -0.06,0.023 -1.36611,0.0318 -2.90245,0.0195 l -2.79336,-0.0223 v -1.05834 -1.05833 h 2.87867 2.87867 l 0.0238,1.03881 c 0.018,0.7871 -0.003,1.04896 -0.0853,1.08069 z m 0,-4.99528 c -0.0599,0.023 -1.36596,0.0318 -2.90231,0.0195 l -2.79335,-0.0223 v -1.143 -1.143 h 2.87866 2.87867 l 0.0236,1.12354 c 0.018,0.85529 -0.002,1.13353 -0.0853,1.16535 z m 7e-5,-5.16471 c -0.06,0.023 -1.36603,0.0318 -2.90238,0.0195 l -2.79335,-0.0223 v -1.10067 -1.10066 h 2.87866 2.87867 l 0.0237,1.08118 c 0.018,0.82119 -0.003,1.09124 -0.0853,1.12301 z m -3.55763,-7.11172 c -0.0584,0.0222 -5.95445,0.0306 -13.10244,0.0186 l -12.99633,-0.0217 v -13.12336 -13.12333 h 13.081 13.081 l 0.0214,13.10472 c 0.0171,10.43925 0,13.11293 -0.0847,13.14508 z m -8.88971,33.44338 c -0.0585,0.0223 -2.81149,0.0308 -6.11773,0.0187 l -6.01133,-0.0219 v -6.09601 -6.096 h 6.096 6.096 l 0.0217,6.07728 c 0.0172,4.81694 0,6.08571 -0.0847,6.11791 z m -20.31352,8.04099 c -0.0621,0.0238 -1.92262,0.0333 -4.13454,0.0212 -3.50857,-0.0192 -4.02167,-0.0383 -4.02167,-0.14905 0,-0.11114 0.51192,-0.127 4.09928,-0.127 3.20324,0 4.10699,0.0231 4.13454,0.10579 0.0194,0.0582 -0.0155,0.12525 -0.0776,0.14905 z m -0.015,-1.0102 c -0.0682,0.0262 -0.25154,0.0354 -0.40731,0.0205 -0.26947,-0.0258 -0.28323,-0.0436 -0.28323,-0.3658 v -0.33867 h 0.381 c 0.3793,0 0.38112,0.001 0.40731,0.31818 0.0182,0.21987 -0.012,0.3329 -0.0978,0.3658 z m 0.015,-1.44514 c -0.0621,0.0238 -1.92262,0.0333 -4.13454,0.0212 -3.50857,-0.0192 -4.02167,-0.0383 -4.02167,-0.14906 0,-0.11114 0.51192,-0.127 4.09928,-0.127 3.20324,0 4.10699,0.0231 4.13454,0.1058 0.0194,0.0582 -0.0155,0.12525 -0.0776,0.14904 z m -0.42965,-1.01353 c -0.0586,0.0225 -1.74486,0.0309 -3.74722,0.0188 l -3.64067,-0.0221 v -4.65666 -4.65666 h 3.72533 3.72534 l 0.0219,4.63787 c 0.0173,3.66517 -8.5e-4,4.64646 -0.0847,4.67877 z m -1.09722,2.45402 c -0.0616,0.0236 -1.23547,0.0328 -2.60864,0.0205 l -2.4967,-0.0225 v -0.33867 -0.33867 h 2.58234 2.58233 l 0.0263,0.31818 c 0.017,0.20593 -0.0132,0.33334 -0.0856,0.36115 z m -0.67208,-81.85033 c -0.45086,0.70411 -1.40428,0.69837 -1.84275,-0.0111 -0.44279,-0.716435 0.083,-1.664225 0.92316,-1.664225 0.36943,0 0.71573,0.20147 0.92316,0.53711 0.22538,0.36467 0.22406,0.782725 -0.004,1.138215 z m -3.11169,65.93851 c -0.26221,0.43 -0.5783,0.62749 -1.00428,0.62749 -0.32689,0 -0.42438,-0.0448 -0.70276,-0.32321 -0.52393,-0.52394 -0.54424,-0.95566 -0.0704,-1.49538 0.5573,-0.63472 1.40144,-0.49011 1.81854,0.31155 0.16115,0.30973 0.14909,0.5676 -0.0411,0.87955 z m -2.15503,15.91647 c -0.0683,0.0262 -0.25153,0.0354 -0.40731,0.0205 -0.26947,-0.0258 -0.28323,-0.0436 -0.28323,-0.3658 v -0.33867 h 0.381 c 0.3793,0 0.38112,0.001 0.40732,0.31818 0.0182,0.21987 -0.012,0.3329 -0.0978,0.3658 z"
       id="path6479" />
    <rect
       style="fill:none;stroke:#000000;stroke-width:0.246386;stroke-miterlimit:4;stroke-dasharray:none;stroke-opacity:1"
       id="rect1625"
       width="62.753613"
       height="127.75362"
       x="106.1232"
       y="73.623199" />
    <circle
       style="fill:#00ffff;stroke-width:0.225274"
       id="path7935"
       cx="108"
       cy="78"
       r="3.5" />
    <rect
       style="fill:none;stroke:#000000;stroke-width:0.228558;stroke-miterlimit:4;stroke-dasharray:none;stroke-opacity:1"
       id="rect907"
       width="109.77144"
       height="109.77144"
       x="82.614281"
       y="82.614281" />
    <circle
       style="fill:#00ffff;stroke-width:0.225274"
       id="path7935-1"
       cx="167"
       cy="78"
       r="3.5" />
    <path
       style="fill:#f8fc01;stroke-width:0.0846667"
       d="m 237.75963,49.975038 c -0.23417,1.53242 -1.06361,3.57968 -1.95824,4.8334 -1.26822,1.77726 -3.43977,3.35574 -5.57957,4.05575 -1.3436,0.43954 -1.73301,0.49007 -4.191,0.54379 l -2.32833,0.0509 -0.59267,0.28448 c -0.56361,0.27052 -1.08301,0.77482 -10.59463,10.28641 -9.9049,9.90488 -10.00513,10.00847 -10.32933,10.67485 l -0.32737,0.67292 -0.0543,23.711082 c -0.0299,13.0411 -0.0816,23.91829 -0.11508,24.17152 -0.0334,0.25324 -0.1261,0.55804 -0.20592,0.67733 -0.0798,0.1193 -0.32094,0.48372 -0.53583,0.80986 -0.21488,0.32612 -0.49784,0.69504 -0.62879,0.81981 -0.40557,0.38644 -1.22338,0.82833 -1.9358,1.04597 -2.09077,0.63874 -4.44039,-0.29312 -5.48207,-2.17417 -0.36874,-0.66586 -0.65148,-1.57177 -0.65314,-2.09265 -0.002,-0.51269 -0.20519,-1.36511 -0.43232,-1.8103 -0.22973,-0.4503 -1.03169,-1.29382 -1.47143,-1.54766 -0.73657,-0.4252 -0.46979,-0.41246 -9.652,-0.46099 -8.49137,-0.0449 -8.64091,-0.0485 -8.92934,-0.21796 -0.16134,-0.0948 -0.37089,-0.30433 -0.46566,-0.46567 -0.17159,-0.29207 -0.17252,-0.37464 -0.21467,-19.17401 -0.0382,-17.047822 -0.0555,-18.914842 -0.17794,-19.232792 -0.2311,-0.60009 -0.54917,-1.07198 -1.02741,-1.52428 -0.81396,-0.7698 -1.11504,-0.8717 -3.32431,-1.12504 -0.62406,-0.0716 -0.90525,-0.15653 -1.55328,-0.46941 -1.05653,-0.51008 -1.71338,-1.15575 -2.19817,-2.16076 -0.4182,-0.86693 -0.52008,-1.28134 -0.52008,-2.11538 0,-0.83404 0.10188,-1.24844 0.52008,-2.11538 0.45522,-0.9437 1.12911,-1.62959 2.06161,-2.09836 0.37061,-0.1863 0.82624,-0.38125 1.0125,-0.43321 0.24263,-0.0677 4.07223,-0.0943 13.50523,-0.0939 8.24545,0 13.41937,-0.031 13.843,-0.0839 0.47726,-0.0596 0.85095,-0.17062 1.26911,-0.37719 0.55767,-0.27547 1.18082,-0.8817 10.55329,-10.26657 10.29955,-10.31318 10.17317,-10.17905 10.51386,-11.15838 0.0514,-0.14777 0.0928,-1.14383 0.0986,-2.37144 0.0108,-2.29789 0.0545,-2.62541 0.55894,-4.191 0.5593,-1.73589 1.42501,-3.11879 2.83514,-4.52892 1.30604,-1.30605 2.96061,-2.22472 5.04435,-2.80081 1.08473,-0.2999 3.19081,-0.38127 4.42461,-0.17096 2.36327,0.40284 4.43642,1.47295 6.10785,3.15274 2.02696,2.03711 3.1389,4.63862 3.21546,7.52295 0.0197,0.74107 -0.0122,1.47093 -0.085,1.94733 z m -7.41256,-2.25291 c -0.33604,-1.77194 -1.83541,-3.03876 -3.59658,-3.03876 -1.79447,0 -3.28706,1.29016 -3.60935,3.11982 -0.1162,0.65966 -0.002,1.36233 0.34048,2.09408 1.28467,2.74528 5.25331,2.74476 6.53814,-8.5e-4 0.38528,-0.82333 0.473,-1.40604 0.32731,-2.17428 z m -30.78199,79.316282 c -0.21173,-0.62139 -0.84878,-1.26412 -1.494,-1.50731 -1.86502,-0.70295 -3.74098,0.55401 -3.74098,2.50661 0,1.55206 1.1917,2.72436 2.74472,2.70007 1.92789,-0.0302 3.13134,-1.81791 2.49026,-3.69937 z m 0,-19.98133 c -0.21173,-0.62139 -0.84878,-1.26412 -1.494,-1.50731 -1.86502,-0.70295 -3.74098,0.55401 -3.74098,2.50661 0,1.55204 1.1917,2.72436 2.74472,2.70007 1.92789,-0.0302 3.13134,-1.81792 2.49026,-3.69937 z M 182.89315,84.603708 h -7.874 V 99.716705 114.8297 l 7.78934,0.0218 c 4.28413,0.012 7.83706,0.004 7.89539,-0.0186 0.0846,-0.0322 0.10173,-3.10386 0.0847,-15.134835 l -0.0214,-15.094397 z m -13.19581,-7.19667 c -0.15923,-0.59752 -0.33261,-0.89972 -0.76332,-1.33043 -1.23234,-1.23234 -3.49116,-0.87115 -4.27996,0.6844 -0.56444,1.1131 -0.36129,2.35228 0.5321,3.24567 0.99511,0.99511 2.75317,0.99548 3.74786,8.5e-4 0.74631,-0.74631 1.0142,-1.65894 0.76332,-2.60044 z m 67.97999,151.130002 c -0.39883,2.05858 -1.10824,3.62249 -2.34247,5.16409 -1.55466,1.9418 -3.59431,3.21848 -6.17137,3.86283 -0.7089,0.17725 -1.00022,0.20115 -2.45534,0.20143 -1.80892,3.4e-4 -2.38354,-0.0879 -3.683,-0.56535 -1.58989,-0.5842 -2.82039,-1.33375 -3.91551,-2.38512 -1.78173,-1.71052 -2.8226,-3.63614 -3.34282,-6.18422 -0.14639,-0.71708 -0.17612,-1.19162 -0.18351,-2.93 l -0.009,-2.07433 -0.27925,-0.59267 c -0.26748,-0.56768 -0.69944,-1.01248 -10.24467,-10.54937 -10.31715,-10.30812 -10.3209,-10.31165 -11.2402,-10.56548 -0.23343,-0.0645 -4.36802,-0.0949 -13.75349,-0.10145 -12.82107,-0.009 -13.44729,-0.0164 -14.03757,-0.16782 -2.482,-0.63681 -4.07023,-2.89101 -3.73501,-5.30118 0.30298,-2.17825 2.40131,-4.07933 4.51881,-4.09399 0.64705,-0.004 1.69416,-0.21442 2.1428,-0.42963 0.55055,-0.26409 1.38401,-1.08278 1.66233,-1.63285 0.48591,-0.9604 0.46775,-0.1819 0.47096,-20.1841 0.003,-18.26816 0.004,-18.39956 0.17343,-18.73136 0.10972,-0.21508 0.28954,-0.39491 0.50462,-0.50463 0.32793,-0.1673 0.4861,-0.17053 8.4867,-0.17343 8.82975,-0.003 9.01657,-0.0118 9.93152,-0.45948 0.27181,-0.13299 0.66097,-0.44471 0.98813,-0.79152 0.66031,-0.69996 0.89609,-1.25721 1.00988,-2.38671 0.20412,-2.02634 1.0968,-3.40022 2.7175,-4.18238 1.27598,-0.6158 2.41771,-0.67987 3.6825,-0.20666 1.31654,0.49259 2.08726,1.23199 2.79976,2.686 l 0.31591,0.64471 0.0439,23.79133 c 0.036,19.49741 0.0643,23.85158 0.15665,24.12515 0.32923,0.97486 0.3245,0.96985 10.58607,11.23618 10.5779,10.58283 10.2204,10.24956 11.30296,10.53645 0.30862,0.0818 0.85229,0.0969 2.12201,0.0591 1.95585,-0.0583 2.75163,0.0412 4.26142,0.53301 1.24966,0.40705 2.15102,0.85831 3.02297,1.51345 2.27767,1.71129 3.64153,3.73962 4.32854,6.43735 0.18046,0.70863 0.22074,1.08822 0.24705,2.32833 0.0216,1.01953 -0.004,1.66652 -0.0834,2.07434 z m -7.41493,-2.42224 c -0.33604,-1.77194 -1.8354,-3.03875 -3.59658,-3.03875 -1.79447,0 -3.28706,1.29015 -3.60935,3.11981 -0.11619,0.65966 -0.002,1.36233 0.34048,2.09406 1.28467,2.7453 5.25331,2.74477 6.53814,-8.5e-4 0.38528,-0.82333 0.47301,-1.40604 0.32731,-2.17427 z m -30.78199,-60.12973 c -0.21172,-0.62139 -0.84878,-1.26412 -1.494,-1.50731 -1.86502,-0.70294 -3.74097,0.55401 -3.74097,2.50661 0,1.55206 1.19169,2.72437 2.74471,2.70007 1.9279,-0.0302 3.13134,-1.81791 2.49026,-3.69937 z m 0,-19.98133 c -0.21172,-0.6214 -0.84878,-1.26413 -1.494,-1.50731 -1.86502,-0.70296 -3.74097,0.554 -3.74097,2.5066 0,1.55206 1.19169,2.72437 2.74471,2.70007 1.9279,-0.0302 3.13134,-1.81791 2.49026,-3.69936 z m -16.67192,14.20729 h -7.874 v 15.113 15.113 l 7.78933,0.0219 c 4.28413,0.012 7.83706,0.004 7.8954,-0.0186 0.0845,-0.0322 0.10172,-3.10387 0.0847,-15.13485 l -0.0214,-15.0944 z m -13.19582,36.15267 c -0.15922,-0.59752 -0.3326,-0.89972 -0.76332,-1.33043 -1.23234,-1.23234 -3.49115,-0.87115 -4.27996,0.6844 -0.56444,1.1131 -0.36129,2.35228 0.5321,3.24567 0.99511,0.9951 2.75318,0.99548 3.74786,8.5e-4 0.74631,-0.74631 1.0142,-1.65894 0.76332,-2.60044 z m -56.96206,1.60867 c -0.0436,0.18626 -0.23565,0.66194 -0.42687,1.05704 -0.46305,0.95679 -1.12918,1.62904 -2.09576,2.11503 -1.24629,0.62662 -0.32793,0.59046 -15.16116,0.597 -8.17185,0.004 -13.47374,0.0373 -13.69333,0.087 -0.19708,0.0446 -0.57808,0.21917 -0.84666,0.38791 -0.74113,0.46561 -20.36379,20.0796 -20.65639,20.64725 -0.37789,0.73313 -0.39473,0.85989 -0.40505,3.04878 -0.0104,2.20153 -0.0593,2.6124 -0.46398,3.89467 -0.48737,1.5444 -0.84186,2.35695 -1.30335,2.98754 -1.41828,1.93794 -2.53703,2.96973 -3.90624,3.60262 -0.2794,0.12915 -0.6604,0.30539 -0.84667,0.39164 -0.77305,0.35795 -2.35515,0.83955 -2.96333,0.90206 -0.67104,0.069 -2.93645,0.076 -2.97772,0.009 -0.0232,-0.0376 -0.11702,-0.0445 -0.20847,-0.0155 -0.0915,0.029 -0.21207,0.0165 -0.26804,-0.0279 -0.056,-0.0444 -0.25417,-0.108 -0.44044,-0.14146 -0.5041,-0.0906 -1.81055,-0.5217 -2.42414,-0.79998 -0.96463,-0.43748 -2.29793,-1.38655 -3.14334,-2.23747 -1.99343,-2.00644 -3.1247,-4.57338 -3.25247,-7.38013 -0.0861,-1.89094 0.30487,-3.67018 1.20445,-5.48153 0.56998,-1.1477 1.068,-1.84604 1.9342,-2.71224 1.33485,-1.33485 2.82007,-2.26379 4.49597,-2.81204 1.3436,-0.43955 1.73301,-0.49007 4.191,-0.5438 l 2.32833,-0.0509 0.59267,-0.28448 c 0.56361,-0.27053 1.08301,-0.77482 10.59463,-10.28641 9.90489,-9.90488 10.00512,-10.00847 10.32933,-10.67486 l 0.32737,-0.67292 0.0543,-23.71108 c 0.0299,-13.04109 0.0816,-23.91828 0.11508,-24.17152 0.0334,-0.25324 0.1261,-0.55804 0.20592,-0.67733 0.0798,-0.1193 0.32094,-0.48373 0.53583,-0.80985 0.21488,-0.32612 0.49784,-0.69504 0.62879,-0.81982 0.40557,-0.38644 1.22338,-0.82833 1.93579,-1.04597 2.09078,-0.63873 4.4404,0.29312 5.48208,2.17418 0.36874,0.66585 0.65148,1.57176 0.65314,2.09264 0.002,0.5127 0.20519,1.36512 0.43232,1.81031 0.22972,0.4503 1.03169,1.29382 1.47143,1.54766 0.73657,0.42519 0.46979,0.41245 9.652,0.46097 8.49137,0.0449 8.64091,0.0485 8.92933,0.21798 0.16135,0.0948 0.3709,0.30432 0.46567,0.46566 0.17159,0.29208 0.17252,0.37465 0.21467,19.17401 0.0382,17.04783 0.0555,18.91484 0.17794,19.2328 0.2311,0.60009 0.54917,1.07197 1.02741,1.52428 0.81395,0.7698 1.11504,0.8717 3.32431,1.12503 1.06148,0.12172 2.1269,0.63377 2.87474,1.38161 0.563,0.563 1.13835,1.59421 1.31001,2.34794 0.10573,0.46421 0.1028,1.61214 -0.005,2.07434 z M 110.6,196.27903 c -0.15922,-0.59751 -0.3326,-0.89971 -0.76332,-1.33043 -1.23234,-1.23234 -3.49115,-0.87114 -4.27996,0.6844 -0.56444,1.11311 -0.36129,2.35228 0.53211,3.24567 0.9951,0.99511 2.75317,0.99548 3.74785,8.5e-4 0.74631,-0.74631 1.01421,-1.65894 0.76332,-2.60043 z M 92.13048,160.12637 h -7.874 v 15.113 15.113 l 7.78934,0.0218 c 4.28413,0.012 7.83706,0.004 7.89539,-0.0186 0.0845,-0.0322 0.10173,-3.10386 0.0847,-15.13484 l -0.0214,-15.0944 z m -11.60674,5.77404 c -0.21172,-0.6214 -0.84878,-1.26413 -1.494,-1.50732 -1.86502,-0.70295 -3.74097,0.55401 -3.74097,2.50661 0,1.55206 1.19169,2.72437 2.74471,2.70007 1.9279,-0.0302 3.13134,-1.81791 2.49026,-3.69936 z m 0,-19.98134 c -0.21172,-0.62139 -0.84878,-1.26412 -1.494,-1.50731 -1.86502,-0.70294 -3.74097,0.55401 -3.74097,2.50661 0,1.55206 1.19169,2.72437 2.74471,2.70007 1.9279,-0.0302 3.13134,-1.81791 2.49026,-3.69937 z m -28.65401,80.11105 c -0.0475,-0.25062 -0.19667,-0.69129 -0.33143,-0.97926 -1.2808,-2.73702 -5.25176,-2.73218 -6.53402,0.008 -0.50732,1.08412 -0.50732,2.06233 0,3.14645 1.28467,2.74528 5.25331,2.74476 6.53814,-8.6e-4 0.38528,-0.82333 0.47301,-1.40604 0.32731,-2.17428 z M 112.65061,79.100378 c -0.168,0.71841 -0.75523,1.75612 -1.30472,2.3056 -0.74784,0.74785 -1.81326,1.2599 -2.87474,1.38161 -2.20927,0.25334 -2.51036,0.35524 -3.32431,1.12504 -0.47824,0.4523 -0.79631,0.92419 -1.02741,1.52428 -0.12245,0.31795 -0.13972,2.18497 -0.17794,19.232802 -0.0421,18.79936 -0.0431,18.88193 -0.21467,19.174 -0.0948,0.16133 -0.30432,0.37089 -0.46567,0.46567 -0.28842,0.16943 -0.43796,0.17308 -8.92933,0.21796 -9.18221,0.0485 -8.91543,0.0358 -9.652,0.46099 -0.43974,0.25384 -1.24171,1.09736 -1.47143,1.54766 -0.22713,0.44519 -0.43069,1.29761 -0.43232,1.8103 -0.002,0.52088 -0.2844,1.4268 -0.65314,2.09265 -1.04168,1.88105 -3.3913,2.8129 -5.48208,2.17417 -0.71241,-0.21764 -1.53022,-0.65952 -1.93579,-1.04597 -0.13095,-0.12477 -0.41391,-0.49369 -0.62879,-0.81981 -0.21489,-0.32614 -0.45601,-0.69056 -0.53583,-0.80986 -0.0798,-0.1193 -0.17249,-0.4241 -0.20592,-0.67733 -0.0334,-0.25323 -0.0852,-11.13042 -0.11508,-24.17152 l -0.0543,-23.711082 -0.32737,-0.67292 c -0.32421,-0.66638 -0.42444,-0.76997 -10.32934,-10.67485 -9.51161,-9.51159 -10.03101,-10.01589 -10.59462,-10.28641 l -0.59267,-0.28448 -2.32833,-0.0509 c -2.45799,-0.0537 -2.8474,-0.10425 -4.191,-0.54379 -2.1398,-0.70001 -4.31135,-2.27849 -5.57957,-4.05575 -0.94573,-1.32532 -1.73519,-3.32819 -1.96964,-4.99697 -0.47321,-3.36826 0.70466,-6.85729 3.14189,-9.30671 1.67142,-1.67979 3.74458,-2.7499 6.10785,-3.15274 1.2338,-0.21031 3.33988,-0.12894 4.42461,0.17096 2.08374,0.57609 3.7383,1.49476 5.04435,2.80081 1.41013,1.41013 2.27584,2.79303 2.83513,4.52892 0.50443,1.56559 0.54811,1.89311 0.55895,4.191 0.006,1.22761 0.0472,2.22367 0.0986,2.37144 0.34069,0.97933 0.21431,0.8452 10.51385,11.15838 9.37248,9.38487 9.99563,9.9911 10.5533,10.26657 0.41829,0.20664 0.79194,0.31767 1.27,0.37737 0.42531,0.0531 5.57601,0.0842 13.843,0.0836 9.45628,-8.5e-4 13.26109,0.0257 13.50434,0.0938 0.71506,0.20007 1.67866,0.76454 2.20695,1.29283 0.5532,0.5532 1.13017,1.59066 1.30046,2.33839 0.10573,0.4642 0.1028,1.61214 -0.005,2.07434 z M 110.6,77.407038 c -0.15922,-0.59752 -0.3326,-0.89972 -0.76332,-1.33043 -1.23234,-1.23234 -3.49115,-0.87115 -4.27996,0.6844 -0.56444,1.1131 -0.36129,2.35228 0.53211,3.24567 0.9951,0.99511 2.75317,0.99548 3.74785,8.5e-4 0.74631,-0.74631 1.01421,-1.65894 0.76332,-2.60044 z m -18.46952,7.19667 h -7.874 V 99.716705 114.8297 l 7.78934,0.0218 c 4.28413,0.012 7.83706,0.004 7.89539,-0.0186 0.0845,-0.0322 0.10173,-3.10386 0.0847,-15.134835 l -0.0214,-15.094397 z M 80.52374,127.03841 c -0.21172,-0.62139 -0.84878,-1.26412 -1.494,-1.50731 -1.86502,-0.70295 -3.74097,0.55401 -3.74097,2.50661 0,1.55206 1.19169,2.72436 2.74472,2.70007 1.92789,-0.0302 3.13133,-1.81791 2.49025,-3.69937 z m 0,-19.98133 c -0.21172,-0.62139 -0.84878,-1.26412 -1.494,-1.50731 -1.86502,-0.70295 -3.74097,0.55401 -3.74097,2.50661 0,1.55204 1.19169,2.72436 2.74472,2.70007 1.92789,-0.0302 3.13133,-1.81792 2.49025,-3.69937 z M 51.86973,47.722128 c -0.33604,-1.77194 -1.8354,-3.03876 -3.59658,-3.03876 -1.79447,0 -3.28705,1.29016 -3.60935,3.11982 -0.11619,0.65966 -0.002,1.36233 0.34048,2.09408 1.28467,2.74528 5.25331,2.74476 6.53814,-8.5e-4 0.38528,-0.82333 0.47301,-1.40604 0.32731,-2.17428 z"
       id="path6489" />
    <circle
       style="fill:#00ffff;stroke-width:0.225274"
       id="path7935-3"
       cx="108"
       cy="197"
       r="3.5" />
    <path
       style="fill:#2f8fd1;stroke-width:0.0846667"
       d="m 201.668,141.6902 c -0.0126,-2.17699 -0.0126,-5.73934 0,-7.91633 0.0126,-2.177 0.0229,-0.39581 0.0229,3.95816 0,4.35399 -0.0103,6.13516 -0.0229,3.95817 z m -10.96412,-26.85726 c -0.0583,0.0222 -3.61126,0.0306 -7.89539,0.0186 l -7.78934,-0.0218 V 99.716745 84.603748 h 7.874 7.874 l 0.0214,15.094397 c 0.0171,12.030975 0,15.102605 -0.0847,15.134835 z m -7.12659,-23.236712 c -0.31766,-0.35101 -1.01402,-0.35 -1.36524,0.002 -0.18394,0.18434 -0.24119,0.74428 -0.1029,1.00648 0.12329,0.23379 0.49494,0.4445 0.784,0.4445 0.28906,0 0.66072,-0.21071 0.78401,-0.4445 0.13698,-0.25975 0.0828,-0.8066 -0.0999,-1.00848 z m 7.04193,98.844062 c -0.0583,0.0222 -3.61127,0.0306 -7.8954,0.0186 l -7.78933,-0.0219 v -15.113 -15.113 h 7.874 7.874 l 0.0214,15.0944 c 0.0171,12.03098 0,15.10261 -0.0847,15.13485 z m -7.12659,-8.16606 c -0.31766,-0.35101 -1.01402,-0.35 -1.36524,0.002 -0.18394,0.18434 -0.24119,0.74428 -0.10291,1.00648 0.12329,0.23379 0.49495,0.4445 0.78401,0.4445 0.28906,0 0.66071,-0.21071 0.784,-0.4445 0.13698,-0.25974 0.0828,-0.8066 -0.0999,-1.00848 z m -16.53795,29.68305 c -0.0128,-1.76133 -0.0128,-4.61883 1e-5,-6.35 0.0128,-1.73116 0.0233,-0.29007 0.0232,3.20243 0,3.4925 -0.0105,4.90891 -0.0233,3.14757 z m 0,-142.578662 c -0.0128,-1.76134 -0.0128,-4.61884 1e-5,-6.35 0.0128,-1.73117 0.0233,-0.29008 0.0232,3.20242 0,3.4925 -0.0105,4.90891 -0.0233,3.14758 z M 137.51182,216.00686 c -15.6464,0 -22.03459,-0.01 -14.19597,-0.0217 7.83863,-0.0119 20.64023,-0.0119 28.448,0 7.80778,0.0119 1.39437,0.0217 -14.25203,0.0217 z m 0,-157.056652 c -15.5067,0 -21.83774,-0.01 -14.06897,-0.0217 7.76877,-0.0119 20.45607,-0.0119 28.194,0 7.73793,0.0119 1.38167,0.0217 -14.12503,0.0217 z M 108.02668,211.95727 c -0.0128,-1.76132 -0.0128,-4.61883 1e-5,-6.34999 0.0128,-1.73116 0.0233,-0.29007 0.0232,3.20242 0,3.49251 -0.0105,4.90891 -0.0232,3.14757 z m 0,-142.578652 c -0.0128,-1.76134 -0.0128,-4.61884 1e-5,-6.35 0.0128,-1.73117 0.0233,-0.29008 0.0232,3.20242 0,3.4925 -0.0105,4.90891 -0.0232,3.14758 z M 99.94121,190.35561 c -0.0583,0.0222 -3.61126,0.0306 -7.89539,0.0186 l -7.78934,-0.0218 v -15.113 -15.113 h 7.874 7.87401 l 0.0214,15.0944 c 0.0171,12.03098 0,15.10261 -0.0847,15.13484 z m -7.12658,-8.16605 c -0.31767,-0.35102 -1.01402,-0.34999 -1.36525,0.002 -0.18393,0.18434 -0.24119,0.74428 -0.1029,1.00649 0.12329,0.23379 0.49494,0.4445 0.784,0.4445 0.28907,0 0.66072,-0.21071 0.78401,-0.4445 0.13698,-0.25975 0.0828,-0.8066 -0.0999,-1.00848 z m 7.12658,-67.35661 c -0.0583,0.0222 -3.61126,0.0306 -7.89539,0.0186 l -7.78934,-0.0218 V 99.716745 84.603748 h 7.874 7.87401 l 0.0214,15.094397 c 0.0171,12.030985 0,15.102615 -0.0847,15.134845 z M 92.81463,91.596228 c -0.31767,-0.35101 -1.01402,-0.35 -1.36525,0.002 -0.18393,0.18434 -0.24119,0.74428 -0.1029,1.00648 0.12329,0.23379 0.49494,0.4445 0.784,0.4445 0.28907,0 0.66072,-0.21071 0.78401,-0.4445 0.13698,-0.25975 0.0828,-0.8066 -0.0999,-1.00848 z M 73.31334,141.30921 c -0.0126,-2.10714 -0.0126,-5.5552 0,-7.66233 0.0126,-2.10715 0.0229,-0.38312 0.0229,3.83116 0,4.21429 -0.0103,5.93831 -0.0229,3.83117 z"
       id="path6487" />
    <circle
       style="fill:#00ffff;stroke-width:0.225274"
       id="path7935-1-5"
       cx="167"
       cy="197"
       r="3.5" />
    <path
       style="fill:none;stroke:#000000;stroke-width:0.26416px;stroke-linecap:butt;stroke-linejoin:miter;stroke-opacity:1"
       d="m 108.2,70.13208 h 58.6"
       id="path1230" />
    <path
       style="fill:none;stroke:#000000;stroke-width:0.26416px;stroke-linecap:butt;stroke-linejoin:miter;stroke-opacity:1"
       d="m 108.2,205.13208 h 58.6"
       id="path1230-4" />
  </g>
</svg>
