<?xml version="1.0" encoding="UTF-8" standalone="no"?>
<!-- Created with Inkscape (http://www.inkscape.org/) -->

<svg
   width="100mm"
   height="100mm"
   viewBox="0 0 100 100"
   version="1.1"
   id="svg6081"
   inkscape:version="1.1.2 (b8e25be833, 2022-02-05)"
   sodipodi:docname="motor.svg"
   xmlns:inkscape="http://www.inkscape.org/namespaces/inkscape"
   xmlns:sodipodi="http://sodipodi.sourceforge.net/DTD/sodipodi-0.dtd"
   xmlns="http://www.w3.org/2000/svg"
   xmlns:svg="http://www.w3.org/2000/svg">
  <sodipodi:namedview
     id="namedview6083"
     pagecolor="#ffffff"
     bordercolor="#666666"
     borderopacity="1.0"
     inkscape:pageshadow="2"
     inkscape:pageopacity="0.0"
     inkscape:pagecheckerboard="0"
     inkscape:document-units="mm"
     showgrid="false"
     inkscape:zoom="6.2217172"
     inkscape:cx="145.21714"
     inkscape:cy="214.16917"
     inkscape:window-width="2558"
     inkscape:window-height="1360"
     inkscape:window-x="1273"
     inkscape:window-y="0"
     inkscape:window-maximized="0"
     inkscape:current-layer="layer1" />
  <defs
     id="defs6078" />
  <g
     inkscape:label="Layer 1"
     inkscape:groupmode="layer"
     id="layer1">
    <rect
       style="fill:#ff0000;fill-opacity:1;stroke:none;stroke-width:0.195354"
       id="rect7944"
       width="4"
       height="19"
       x="48"
       y="36" />
    <rect
       style="fill:#ff0000;fill-opacity:1;stroke:none;stroke-width:0.182089"
       id="rect7840"
       width="40"
       height="4"
       x="30"
       y="47.5" />
    <path
       style="fill:#000000;stroke-width:0.0846667"
       d="m 48.872165,85.242791 c -0.031,-0.031 -0.0564,-1.05974 -0.0564,-2.286 v -2.22956 h -0.50502 c -0.61466,0 -0.68031,-0.0853 -0.68031,-0.88343 0,-0.43159 -0.0277,-0.5559 -0.12395,-0.5559 -0.0682,0 -0.27676,-0.161922 -0.46355,-0.359832 -0.33919,-0.3594 -0.3396,-0.36068 -0.34172,-1.05696 l -0.002,-0.69711 -2.26483,-0.0225 -2.26483,-0.0226 -0.0229,-1.75683 -0.0229,-1.75683 h -2.60305 -2.60306 l -1.03589,-1.03839 -1.0359,-1.03839 v -7.36078 -7.36078 l -2.70602,-2.71792 c -2.45664,-2.46744 -2.7317,-2.77212 -2.9845,-3.306 -0.25081,-0.52935 -0.27862,-0.66417 -0.27862,-1.35008 0,-0.68327 0.0277,-0.81886 0.26811,-1.31233 0.14746,-0.30268 0.43677,-0.72178 0.64291,-0.93133 0.20614,-0.20955 1.40838,-1.20015 2.67164,-2.20134 l 2.29683,-1.82033 0.002,-5.24206 0.002,-5.242057 1.07532,-1.086777 1.07532,-1.086775 h 4.68201 4.68202 v -0.247075 c 0,-0.487836 0.0422,-0.514925 0.80281,-0.514925 h 0.70002 l 0.0508,-0.254 c 0.0403,-0.201568 0.0948,-0.254 0.26411,-0.254 h 0.21331 l 0.0216,-7.260167 0.0216,-7.260167 1.85662,-0.02286 c 1.42881,-0.01759 1.87236,0.0019 1.92488,0.08467 0.0375,0.05914 0.0688,3.450802 0.0695,7.537027 l 10e-4,7.4295 h 0.71061 c 0.77216,0 0.81339,0.0261 0.81339,0.514925 v 0.247075 h 4.67056 4.67055 l 1.08678,1.075317 1.08678,1.075317 0.002,5.253512 0.002,5.25352 2.29682,1.82033 c 1.26327,1.00119 2.46551,1.99179 2.67164,2.20134 0.20615,0.20955 0.49546,0.62865 0.64292,0.93133 0.2404,0.49347 0.26811,0.62906 0.26811,1.31233 0,0.68591 -0.0278,0.82073 -0.27848,1.35008 -0.25281,0.53388 -0.52786,0.83856 -2.9845,3.306 l -2.70609,2.71792 v 7.36618 7.36619 l -1.09808,1.0865 -1.09808,1.0865 -2.54092,-0.0383 -2.54091,-0.0383 -0.0228,1.74162 -0.0228,1.74162 -2.26483,0.0225 -2.26483,0.0226 -0.002,0.69711 c -0.002,0.69628 -0.003,0.69755 -0.34172,1.05696 -0.18679,0.1979 -0.39539,0.359832 -0.46355,0.359832 -0.0962,0 -0.12395,0.12431 -0.12395,0.5559 0,0.78555 -0.0707,0.88343 -0.63798,0.88343 h -0.46268 v 2.12223 c 0,1.301 -0.0339,2.18561 -0.0877,2.286 -0.0796,0.14882 -0.18657,0.16377 -1.17122,0.16377 -0.59597,0 -1.10898,-0.0254 -1.14002,-0.0564 z m 1.7747,-30.670642 c 0.28258,-0.12832 0.37797,-0.23332 0.49834,-0.54848 0.24276,-0.63568 0.0605,-1.42286 -0.38458,-1.66107 -0.35433,-0.18963 -0.96426,-0.19777 -1.37,-0.0183 -0.32218,0.14252 -0.40847,0.23318 -0.53346,0.56049 -0.17653,0.4622 -0.12608,1.07833 0.11513,1.40644 0.30364,0.41301 1.07497,0.5332 1.67457,0.26092 z m -17.96015,-4.06102 c 0.75895,-0.42626 0.7071,-1.81331 -0.0822,-2.20001 -0.35592,-0.17437 -0.98445,-0.15573 -1.32195,0.0392 -0.67885,0.39209 -0.78535,1.55629 -0.19075,2.08522 0.36107,0.32119 1.09566,0.35601 1.59494,0.0756 z m 36.068,0 c 0.75895,-0.42626 0.7071,-1.81331 -0.0822,-2.20001 -0.35593,-0.17437 -0.98446,-0.15573 -1.32196,0.0392 -0.67884,0.39209 -0.78535,1.55629 -0.19075,2.08522 0.36107,0.32119 1.09566,0.35601 1.59494,0.0756 z m -18.034,-12.02266 c 0.75895,-0.42627 0.7071,-1.81332 -0.0822,-2.20002 -0.35593,-0.17437 -0.98446,-0.15572 -1.32196,0.0392 -0.67885,0.39209 -0.78535,1.55629 -0.19075,2.08522 0.36107,0.32119 1.09566,0.35601 1.59494,0.0756 z"
       id="path7070" />
  </g>
</svg>
