<?xml version="1.0" encoding="UTF-8" standalone="no"?>
<!-- Created with Inkscape (http://www.inkscape.org/) -->

<svg
   width="42mm"
   height="32mm"
   viewBox="0 0 42 32"
   version="1.1"
   id="svg8584"
   inkscape:version="1.1.2 (b8e25be833, 2022-02-05)"
   sodipodi:docname="wheel-arm.svg"
   xmlns:inkscape="http://www.inkscape.org/namespaces/inkscape"
   xmlns:sodipodi="http://sodipodi.sourceforge.net/DTD/sodipodi-0.dtd"
   xmlns="http://www.w3.org/2000/svg"
   xmlns:svg="http://www.w3.org/2000/svg">
  <sodipodi:namedview
     id="namedview8586"
     pagecolor="#ffffff"
     bordercolor="#666666"
     borderopacity="1.0"
     inkscape:pageshadow="2"
     inkscape:pageopacity="0.0"
     inkscape:pagecheckerboard="0"
     inkscape:document-units="mm"
     showgrid="false"
     inkscape:zoom="4.3994184"
     inkscape:cx="57.39395"
     inkscape:cy="93.307788"
     inkscape:window-width="2558"
     inkscape:window-height="1360"
     inkscape:window-x="1273"
     inkscape:window-y="0"
     inkscape:window-maximized="0"
     inkscape:current-layer="layer1" />
  <defs
     id="defs8581" />
  <g
     inkscape:label="Layer 1"
     inkscape:groupmode="layer"
     id="layer1">
    <circle
       style="fill:#ff0000;stroke-width:0.267645"
       id="path9182"
       cx="39"
       cy="29"
       r="2" />
    <circle
       style="fill:#ff0000;stroke-width:0.251385"
       id="path8682"
       cx="3"
       cy="29"
       r="2" />
    <path
       style="fill:#040303;stroke-width:0.0846667"
       d="m 2.3719084,32.012551 c -0.60226,-0.1308 -0.99033,-0.34424 -1.48669002,-0.81768 -0.54426,-0.51914 -0.78154,-0.9835 -0.92538,-1.81095 -0.13478,-0.77542 -0.069,-15.26323 0.0736,-16.21137 0.14836,-0.98628 0.56059,-2.60727 0.86127,-3.38667 0.42457002,-1.10059 1.14954002,-2.48354 1.75313002,-3.34433 0.7394,-1.05446 2.69126,-3.00632 3.74572,-3.74572 1.43616,-1.00704 3.266,-1.82922002 5.0376696,-2.26348002 1.76672,-0.43305000158 1.97065,-0.44458 8.59366,-0.48587 6.76216,-0.0422 8.35406,0.0138 9.93677,0.34898 5.848,1.23864002 10.38847,5.70243002 11.68627,11.48893002 0.3854,1.71841 0.41343,2.33123 0.45061,9.85483 0.0318,6.43464 0.0215,7.17651 -0.10774,7.78933 -0.0786,0.37253 -0.21708,0.82399 -0.30775,1.00325 -0.23779,0.4701 -0.76142,1.00695 -1.22907,1.26008 -1.76922,0.95762 -3.93806,-0.007 -4.39656,-1.95452 -0.0887,-0.37691 -0.11284,-1.93896 -0.11394,-7.37848 -10e-4,-7.06247 -0.0418,-8.19496 -0.33647,-9.44033 -0.3394,-1.43432 -1.18889,-2.97635 -2.22601,-4.04069 -1.50525,-1.54476 -3.33857,-2.43626 -5.52444,-2.68639 -1.01989,-0.1167 -12.61505,-0.11719 -13.75147,-8.5e-4 -2.11553,0.2171 -3.87003,1.05505 -5.3885796,2.5736 -1.51855,1.51855 -2.3565,3.27305 -2.5736,5.38858 -0.0531,0.51789 -0.0886,3.63027 -0.0895,7.85495 -0.002,7.43849 -0.0132,7.67774 -0.41001,8.45561 -0.24715,0.48447 -1.08292,1.22272 -1.58244,1.3978 -0.52218,0.18302 -1.24458,0.24765 -1.68908,0.15111 z m 1.22594,-1.71617 c 0.50045,-0.25571 0.69866,-0.55004 0.74476,-1.1059 0.0752,-0.90714 -0.38611,-1.46427 -1.28996,-1.5578 -0.40792,-0.0422 -1.00521,0.23439 -1.2591,0.58306 -0.36112,0.49594 -0.22219,1.69802 0.2259,1.95461 0.62218,0.35629 1.05946,0.3912 1.5784,0.12603 z m 36.1300796,-0.0339 c 0.83386,-0.40736 0.8881,-1.91412 0.0865,-2.40163 -0.41395,-0.25174 -0.88534,-0.29003 -1.36565,-0.11092 -0.47531,0.17725 -0.68177,0.41845 -0.82073,0.9589 -0.32229,1.25346 0.88539,2.14697 2.09992,1.55365 z M 3.6028084,16.241721 c 0.90588,-0.45681 0.99959,-1.88602 0.15632,-2.38415 -0.7028,-0.41514 -1.6482,-0.1603 -2.00105,0.53942 -0.64138,1.2719 0.57283,2.48611 1.84473,1.84473 z m 36.0636996,-0.002 c 0.45609,-0.24119 0.67845,-0.63558 0.67827,-1.20307 0,-0.59328 -0.21353,-0.97564 -0.67397,-1.20782 -0.48028,-0.24219 -0.89607,-0.24155 -1.35683,0.002 -0.45609,0.24119 -0.67844,0.63558 -0.67826,1.20307 0,0.59328 0.21353,0.97564 0.67397,1.20782 0.48027,0.24219 0.89607,0.24154 1.35682,-0.002 z m -18.0297,-12.02055 c 0.90588,-0.45681 0.99959,-1.88602 0.15632,-2.38414 -0.7028,-0.41515 -1.6482,-0.1603 -2.00105,0.53942 -0.64138,1.27189 0.57283,2.4861 1.84473,1.84472 z"
       id="path8878" />
  </g>
</svg>
